<svg width="654" height="496" viewBox="0 0 654 496" fill="none" xmlns="http://www.w3.org/2000/svg">
<path fill-rule="evenodd" clip-rule="evenodd" d="M322.5 192.5C323 192 327 191.5 330 192.5C332.4 193.3 479.333 224.833 552.5 240.5V339L330.5 389C329 389.5 324.9 390.2 320.5 389C316.1 387.8 172.667 353.833 101.5 337V241L322.5 192.5ZM329.933 198.043C327 197.102 323.089 197.573 322.6 198.043L106.5 243.664V333.964C176.089 349.798 316.342 381.748 320.644 382.877C324.946 384.006 328.956 383.347 330.422 382.877L547.5 335.845V243.193C475.956 228.457 332.28 198.796 329.933 198.043Z" fill="#F3EDF4"/>
<path fill-rule="evenodd" clip-rule="evenodd" d="M45.9999 213V196.5H46.9999V193L43.4999 186.5V185.5L47.4999 178.5V176L39 160L30 176.5V177.5L35 184.5V186L30 193.5V197.5H32V218L22 221.5V182L24.5 181V177L18.5 166.5L24.5 156C20.5 149 12.5 134.7 12.5 133.5C12.5 132.3 4.83333 148 1 156L7.5 165.5V166.5L2 177V181L4.5 182V386.5L12 389.5L21 387.5L20.5 369.5L33 372.5V396.5L38.5 399L46.4999 396V375.5L55.9999 378V403.5L61.9999 406.5L68.9999 403.5L68.4999 382L78.9999 384V412L84.4999 414L91.9999 412V388L102.5 390.5V419.5L108 422L115.5 418.5V395L124.5 397.5V427.5L130.5 429.5L138.5 427.5V401.5L147.5 403.5V435.5L154.5 437.5L161.5 434.5V407L170.5 409V442.5L177.5 445L185 442.5V413.5L194 416.5V449.5L200.5 452L207.5 449.5V420L217 422.5V457.5L223.5 460.5L230.5 457.5L231 426.5C233.667 427 239.2 428.1 240 428.5C240.8 428.9 240.333 453.333 240 465.5L246 468L253.5 465.5V432.5L264 434.5L263 473L269.5 475.5L277 473V439L286.5 441.5V480.5L292.5 483.5L300 480.5V445L310 448V489L326.5 494.5L342 489V457L351 454V486L378.5 477.5L378 446.5L382 445V475.5L409 467V437.5L412 436.5V465.5L439.5 457V428.5L442.5 427.5V456L470 447V418.5H472L473 445L500.5 436.5V410L503.5 409V434.5C503.5 434.9 521.833 429.333 531 426.5V401.5L534 400.5V425L561.5 416.5V392L564 391.5V415L592 406.5V382.5H595V404.5L623 396V373.5L632 371.5V387L641 389.5L650 387V181H652.5V177.5L646.5 167L652.5 155.5L640.5 133.5L628.5 155.5L635.5 167L629.5 177.5V182H631.5V204L622.5 201V177.5L616 160L601 155.5L593.5 168.5V196H592.5V167L584 149.5L570.5 145L563.5 158V188.5H561.5V156.5L553.5 139.5L540 135.5L533 148.5V181.5H531.5V147L524.5 130L510 124L502.5 137.5V174.5H500V134.5L494 120L479 115L471.5 127.5V167H470V127.5L463.5 109.5L449 104.5L441.5 117.5V161H439.5V116.5L433 99.5L417.5 95L410.5 108V153.5H409.5V106.5L402.5 89.5L387 84L380.5 97.5V146.5H378.5V95L372 79L356 73.5L350 87.5C350.167 104.333 350.4 138.4 350 140C349.6 141.6 345.5 139.333 343.5 138V93L348.5 95V86L337.5 66L348.5 43L327 1V1.5L305 44L316 65.5L305 88V94.5L309.5 93V125.5L300.5 129V112H301.5V108.5L298 102V101L302 94V91.5L293.5 75.5L284.5 92V93L289.5 100V101.5L284.5 109V113H285.5H286H286.5V133.5C286.5 134.3 280.5 135.833 277.5 136.5V120H278.5V116.5L275 110V109L279 102V99.5L270.5 83.5L261.5 100V101L266.5 108V109.5L261.5 117V121H263.5V121.5V122V141.5C263.5 142.3 257.5 143.833 254.5 144.5V128H255.5V124.5L252 118V117L256 110V107.5L247.5 91.5L238.5 108V109L243.5 116V117.5L238.5 125V129H239.5V149.5C239.5 150.3 233.5 151.833 230.5 152.5V136H231.5V132.5L228 126V125L232 118V115.5L223.5 99.5L214.5 116V117L219.5 124V125.5L214.5 133V137H216.5V156.5C216.5 157.3 210.5 158.833 207.5 159.5V143H208.5V139.5L205 133V132L209 125V122.5L200.5 106.5L191.5 123V124L196.5 131V132.5L191.5 140V144H193.5V144.5V145V164.5C193.5 165.3 187.5 166.833 184.5 167.5V152H185.5V148.5L182 142V141L186 134V131.5L177.5 115.5L168.5 132V133L173.5 140V141.5L168.5 149V153H170.5V172.5C170.5 172.711 170.081 172.974 169.409 173.258C169.142 173.371 168.836 173.487 168.5 173.605C166.479 174.314 163.392 175.079 161.5 175.5V159H162.5V155.5L159 149V148L163 141V138.5L154.5 122.5L145.5 139V140L150.5 147V148.5L145.5 156V160H147.5V179.5C147.5 180.3 141.5 181.833 138.5 182.5V166H139.5V162.5L136 156V155L140 148V145.5L131.5 129.5L122.5 146V147L127.5 154V155.5L122.5 163V167H124.5V167.5V168V187.5C124.5 188.3 118.5 189.833 115.5 190.5V174H116.5V170.5L113 164V163L117 156V153.5L108.5 137.5L99.4999 154V155L104.5 162V163.5L99.4999 171V175H100.5V194.5C100.5 195.3 94.4999 196.833 91.4999 197.5V181H92.4999V177.5L88.9999 171V170L92.9999 163V160.5L84.4999 144.5L75.4999 161V162L80.4999 169V170.5L75.4999 178V181.5H78.4999V182.5V183V202.5C78.4999 203.3 72.4999 204.833 69.4999 205.5V189H70.4999V185.5L66.9999 179V178L70.9999 171V168.5L62.4999 152.5L53.4999 169V170L58.4999 177V178.5L53.4999 186V190H54.9999V210C54.9999 210.8 48.9999 212.333 45.9999 213ZM21 240.5V229L32.5 225V237L21 240.5ZM45.9999 234V221L55.4999 218V231L45.9999 234ZM92.4999 221.5V208.5L102 205.5V218.5L92.4999 221.5ZM69.4999 227.5V214.5L78.9999 211.5V224.5L69.4999 227.5ZM115.5 216.5V201L124 198V213.5L115.5 216.5ZM207.5 193.5V173.392L216.5 169.5V189.608L207.5 193.5ZM230.5 187.5V166.554L239.5 162.5V183.446L230.5 187.5ZM184.5 198.5V180.905L193.5 177.5V195.095L184.5 198.5ZM161.5 204.5V187.743L170.5 184.5V201.257L161.5 204.5ZM138.5 210V194.5L147 191.5V207L138.5 210ZM254 181V159L263 156V178L254 181ZM277 174.5V152.5L286 149V172L277 174.5ZM300.5 168.5V145L309 142V166L300.5 168.5ZM21.5 362V247.5L32.5 245.5V365.5L21.5 362ZM45.9999 368V242.5L54.9999 239.5V370.5L45.9999 368ZM68.4999 373V236.5L77.9999 234.5V376.5L68.4999 373ZM92.4999 379C92.1666 330.833 91.6999 234 92.4999 232L101.5 229V236L115 233.5V226L124.5 224V231C124.5 231.4 133.833 229.833 138.5 229V221L148 219V226.5L161 223L161.5 215.5L171 214L170.5 221L184 218.5V210.5L193.5 209L194 216.5L207.5 213.5V206L216.5 204V211.5L230.5 208.5V200.5L239.5 199L240 206.5L254 203.5V195.5L263 193.5V201.5L277 198V190.5L286 189V196.5L300.5 193V185L310 183V192L326 188L343 192V169.5L349.5 171V193L378 200V173.5L380.5 175V200L408.5 205.5V179.5H411V206.5L439.5 212.5V185.5H442V212.5L469.5 219V192H472V219L500.5 226V197.5H503V226L531 232.5V203.5H533V232.5L555.5 237.5V342.5L533 347.5V379H531.5V347.5L502.5 353.5L502 386.5L500.5 387V354L472.5 360.5L472 394H470.5L470 361.5L441.5 368V402L439.5 403V368.5L411.5 375C411.667 386 412 408.3 412 409.5C412 410.7 410.333 410 409.5 409.5V375.5L381 382L380.5 416L378.5 417V382.5L351.5 389V423L343 425.5V389L326 393.5L310 389V430.5L300 428V387.5L285.5 384V424.5L277 423V382.5L263.5 379V419.5C263.5 419.9 256.5 418 253 417V377L239.5 373V413.5L230.5 411.5L230 372L216 368V408.5L206.5 406V365.5L193.5 362V403L184.5 400.5V362L170.5 358V397.5L161 395.5V355.5L148 352.5V392L138 389.5V350L124.5 346.5V386.5L115.5 384V344.5L101 341V381L92.4999 379ZM594.5 214.5H592.5V276H594.5V214.5ZM561.5 276V207.5H563.5V276H561.5ZM622.5 276V219L633 221V276H622.5ZM631.5 291.5H622.5L623.5 357L631.5 354V291.5ZM563.5 294.5H561.5V372H563.5V294.5ZM594.5 293.5H591.5L592.5 363.5H594.5V293.5Z" fill="#F3EDF4"/>
<path d="M202 228.222V229.049V261.273H204.477C205.303 251.909 208.936 233.18 216.862 233.18H217.688V347.205H211.908V351.336H240.806V347.205H234.201V231.527C237.779 232.078 245.43 238.798 247.411 261.273V262.099H250.714V227.396H202V228.222Z" fill="#F3EDF4"/>
<path d="M358.049 228.635V230.288V233.593H363.829C364.379 271.877 365.158 347.736 363.829 347.618C362.5 347.5 359.5 347.618 358.049 347.618V352.576H386.947V347.618H380.342V287.3H386.947C388.874 289.504 392.562 296.389 391.901 306.305V307.131H395.204V267.47H391.901C392.177 270.5 391.661 277.017 391 279C390.339 280.983 388.323 283.169 386.947 283.995H381.168V233.593H390.185C396.215 237.746 398.253 251.515 398.507 258.381H401.809V227.809H358.049V228.635Z" fill="#F3EDF4"/>
<path d="M435.661 226.157C429.331 226.707 416.011 236.733 413.368 272.428C410.726 308.122 417.221 331.919 420.799 339.355C423.001 344.864 429 353.5 435.661 352.576C442.322 351.651 446.12 346.516 447.22 345.139L449.697 350.923H452.5V317.046H448.5C448.225 324.482 441 348.5 436.5 345.5C431 344.5 431.21 325.873 431.491 319.742C431.502 319.498 431.512 319.291 431.519 319.124C431.528 318.918 431.533 318.773 431.533 318.699V236.072C432.359 233.868 434.275 230.798 435.661 230.288C435.723 230.265 436.335 230.109 436.766 230.231C437.198 230.354 438.692 229.407 442.266 236.072C446.23 243.343 447.22 255.076 447.22 260.034H451.349V228.635H447.22L444.743 232.767C443.092 230.101 438.964 225.048 435.661 226.157Z" fill="#F3EDF4"/>
<path fill-rule="evenodd" clip-rule="evenodd" d="M260.622 226.983V231.114H265.576L289.52 352.576H294.474L306.859 296.389L317.592 352.576H321.72L344.839 231.114H348.141V226.983H335.757V231.114H338.234L340.711 232.767L326.674 312.088C322.546 294.737 313.385 250.293 313.5 249.5L320.046 231.114H327.5V226.983H260.622ZM297.776 314.567L282.089 231.114H295.299L306.033 288.127V291.432L301.079 314.567H297.776ZM312.5 245.5L309.336 231.114H317.628L312.5 245.5Z" fill="#F3EDF4"/>
<path d="M78.4999 202.5C78.4999 203.3 72.4999 204.833 69.4999 205.5V189H70.4999M78.4999 202.5V182.5M78.4999 202.5V183M78.4999 182.5V181.5M78.4999 182.5V183M263.5 141.5C263.5 142.3 257.5 143.833 254.5 144.5V128H255.5M263.5 141.5V121.5M263.5 141.5V122M263.5 121.5V121M263.5 121.5V122M216.5 136.5V137M184.5 151V152M193.5 164.5C193.5 165.3 187.5 166.833 184.5 167.5V152M193.5 164.5V144.5M193.5 164.5V145M193.5 144.5V144M193.5 144.5V145M170.5 152.5V153M147.5 159.5V160M124.5 187.5C124.5 188.3 118.5 189.833 115.5 190.5V174H116.5M124.5 187.5V167.5M124.5 187.5V168M124.5 167.5V167M124.5 167.5V168M100.5 194.5C100.5 195.3 94.4999 196.833 91.4999 197.5V181H92.4999M100.5 194.5V174.5M100.5 194.5V175H99.4999M30 197.5V193.5L35 186V184.5L30 177.5V176.5L39 160L47.4999 176V178.5L43.4999 185.5V186.5L46.9999 193V196.5M30 197.5H33M30 197.5H32V218L22 221.5V182L24.5 181V177L18.5 166.5L24.5 156C20.5 149 12.5 134.7 12.5 133.5C12.5 132.3 4.83333 148 1 156L7.5 165.5V166.5L2 177V181L4.5 182V386.5L12 389.5L21 387.5L20.5 369.5L33 372.5V396.5L38.5 399L46.4999 396V375.5L55.9999 378V403.5L61.9999 406.5L68.9999 403.5L68.4999 382L78.9999 384V412L84.4999 414L91.9999 412V388L102.5 390.5V419.5L108 422L115.5 418.5V395L124.5 397.5V427.5L130.5 429.5L138.5 427.5V401.5L147.5 403.5V435.5L154.5 437.5L161.5 434.5V407L170.5 409V442.5L177.5 445L185 442.5V413.5L194 416.5V449.5L200.5 452L207.5 449.5V420L217 422.5V457.5L223.5 460.5L230.5 457.5L231 426.5C233.667 427 239.2 428.1 240 428.5C240.8 428.9 240.333 453.333 240 465.5L246 468L253.5 465.5V432.5L264 434.5L263 473L269.5 475.5L277 473V439L286.5 441.5V480.5L292.5 483.5L300 480.5V445L310 448V489L326.5 494.5L342 489V457L351 454V486L378.5 477.5L378 446.5L382 445V475.5L409 467V437.5L412 436.5V465.5L439.5 457V428.5L442.5 427.5V456L470 447V418.5H472L473 445L500.5 436.5V410L503.5 409V434.5C503.5 434.9 521.833 429.333 531 426.5V401.5L534 400.5V425L561.5 416.5V392L564 391.5V415L592 406.5V382.5H595V404.5L623 396V373.5L632 371.5V387L641 389.5L650 387V181H652.5V177.5L646.5 167L652.5 155.5L640.5 133.5L628.5 155.5L635.5 167L629.5 177.5V182H631.5V204L622.5 201V177.5L616 160L601 155.5L593.5 168.5V196H592.5V167L584 149.5L570.5 145L563.5 158V188.5H561.5V156.5L553.5 139.5L540 135.5L533 148.5V181.5H531.5V147L524.5 130L510 124L502.5 137.5V174.5H500V134.5L494 120L479 115L471.5 127.5V167H470V127.5L463.5 109.5L449 104.5L441.5 117.5V161H439.5V116.5L433 99.5L417.5 95L410.5 108V153.5H409.5V106.5L402.5 89.5L387 84L380.5 97.5V146.5H378.5V95L372 79L356 73.5L350 87.5C350.167 104.333 350.4 138.4 350 140C349.6 141.6 345.5 139.333 343.5 138V93L348.5 95V86L337.5 66L348.5 43L327 1V1.5L305 44L316 65.5L305 88V94.5L309.5 93V125.5L300.5 129V112H301.5M46.9999 196.5H45.4999M46.9999 196.5H45.9999V213C48.9999 212.333 54.9999 210.8 54.9999 210V190H53.4999V186L58.4999 178.5V177L53.4999 170V169L62.4999 152.5L70.9999 168.5V171L66.9999 178V179L70.4999 185.5V189M286 113H284.5M286 113H285.5M286 113H286.5M284.5 113V109L289.5 101.5V100L284.5 93V92L293.5 75.5L302 91.5V94L298 101V102L301.5 108.5V112M284.5 113H285.5M301.5 112H300M278.5 120V116.5L275 110V109L279 102V99.5L270.5 83.5L261.5 100V101L266.5 108V109.5L261.5 117V121H263.5M278.5 120H277M278.5 120H277.5V136.5C280.5 135.833 286.5 134.3 286.5 133.5V113M240 129H239.5M255.5 128V124.5L252 118V117L256 110V107.5L247.5 91.5L238.5 108V109L243.5 116V117.5L238.5 125V129H239.5M255.5 128H254M231.5 136V132.5L228 126V125L232 118V115.5L223.5 99.5L214.5 116V117L219.5 124V125.5L214.5 133V137H216.5M231.5 136H230M231.5 136H230.5V152.5C233.5 151.833 239.5 150.3 239.5 149.5V129M208.5 143V139.5L205 133V132L209 125V122.5L200.5 106.5L191.5 123V124L196.5 131V132.5L191.5 140V144H193.5M208.5 143H207M208.5 143H207.5V159.5C210.5 158.833 216.5 157.3 216.5 156.5V137M184 152H184.5M162.5 159V155.5L159 149V148L163 141V138.5L154.5 122.5L145.5 139V140L150.5 147V148.5L145.5 156V160H147.5M162.5 159H161M162.5 159H161.5V175.5C163.392 175.079 166.479 174.314 168.5 173.605M139.5 166V162.5L136 156V155L140 148V145.5L131.5 129.5L122.5 146V147L127.5 154V155.5L122.5 163V167H124.5M139.5 166H138M139.5 166H138.5V182.5C141.5 181.833 147.5 180.3 147.5 179.5V160M101 175H99.4999M99.4999 175V171L104.5 163.5V162L99.4999 155V154L108.5 137.5L117 153.5V156L113 163V164L116.5 170.5V174M116.5 174H115M75.4999 178V182V181.5M75.4999 178L80.4999 170.5V169L75.4999 162V161L84.4999 144.5L92.9999 160.5V163L88.9999 170V171L92.4999 177.5V181M75.4999 178V181.5M92.4999 181H90.9999M70.4999 189H68.9999M78.4999 183V181.5M78.4999 181.5H75.4999M285.5 113H286.5M124.5 167V168M193.5 144V145M263.5 121V122M170.5 153V172.5C170.5 172.711 170.081 172.974 169.409 173.258M170.5 153H168.5V149L173.5 141.5V140L168.5 133V132L177.5 115.5L186 131.5V134L182 141V142L185.5 148.5V152H184.5M168.5 173.605L169.409 173.258M168.5 173.605C168.836 173.487 169.142 173.371 169.409 173.258M202 228.222V261.273M202 228.222V229.049M202 228.222V227.396M202 261.273H204.477C205.303 251.909 208.936 233.18 216.862 233.18H217.688M202 261.273V229.049M217.688 233.18L216.862 233.593M217.688 233.18V347.205H211.908V351.336H240.806V347.205H234.201V231.527C237.779 232.078 245.43 238.798 247.411 261.273V262.099H250.714V227.396H202M202 227.396V229.049M202 227.396L202.826 226.983M358.049 228.635V233.593M358.049 228.635V230.288M358.049 228.635V227.809M358.049 233.593H363.829C364.379 271.877 365.158 347.736 363.829 347.618C362.5 347.5 359.5 347.618 358.049 347.618V352.576H386.947V347.618H380.342V287.3H386.947C388.874 289.504 392.562 296.389 391.901 306.305V307.131M358.049 233.593V230.288M358.049 227.809H401.809V258.381H398.507C398.253 251.515 396.215 237.746 390.185 233.593M358.049 227.809V230.288M391.901 307.131H395.204V267.47H391.901C392.177 270.5 391.661 277.017 391 279C390.339 280.983 388.323 283.169 386.947 283.995H381.168V233.593H390.185M391.901 307.131V305.478M380.342 233.593H390.185M21 229V240.5L32.5 237V225L21 229ZM45.9999 221V234L55.4999 231V218L45.9999 221ZM92.4999 208.5V221.5L102 218.5V205.5L92.4999 208.5ZM69.4999 214.5V227.5L78.9999 224.5V211.5L69.4999 214.5ZM115.5 201V216.5L124 213.5V198L115.5 201ZM207.5 173.392V193.5L216.5 189.608V169.5L207.5 173.392ZM230.5 166.554V187.5L239.5 183.446V162.5L230.5 166.554ZM184.5 180.905V198.5L193.5 195.095V177.5L184.5 180.905ZM161.5 187.743V204.5L170.5 201.257V184.5L161.5 187.743ZM138.5 194.5V210L147 207V191.5L138.5 194.5ZM254 159V181L263 178V156L254 159ZM277 152.5V174.5L286 172V149L277 152.5ZM300.5 145V168.5L309 166V142L300.5 145ZM21.5 247.5V362L32.5 365.5V245.5L21.5 247.5ZM45.9999 242.5V368L54.9999 370.5V239.5L45.9999 242.5ZM68.4999 236.5V373L77.9999 376.5V234.5L68.4999 236.5ZM92.4999 232C91.6999 234 92.1666 330.833 92.4999 379L101 381V341L115.5 344.5V384L124.5 386.5V346.5L138 350V389.5L148 392V352.5L161 355.5V395.5L170.5 397.5V358L184.5 362V400.5L193.5 403V362L206.5 365.5V406L216 408.5V368L230 372L230.5 411.5L239.5 413.5V373L253 377V417C256.5 418 263.5 419.9 263.5 419.5V379L277 382.5V423L285.5 424.5V384L300 387.5V428L310 430.5V389L326 393.5L343 389V425.5L351.5 423V389L378.5 382.5V417L380.5 416L381 382L409.5 375.5V409.5C410.333 410 412 410.7 412 409.5C412 408.3 411.667 386 411.5 375L439.5 368.5V403L441.5 402V368L470 361.5L470.5 394H472L472.5 360.5L500.5 354V387L502 386.5L502.5 353.5L531.5 347.5V379H533V347.5L555.5 342.5V237.5L533 232.5V203.5H531V232.5L503 226V197.5H500.5V226L472 219V192H469.5V219L442 212.5V185.5H439.5V212.5L411 206.5V179.5H408.5V205.5L380.5 200V175L378 173.5V200L349.5 193V171L343 169.5V192L326 188L310 192V183L300.5 185V193L286 196.5V189L277 190.5V198L263 201.5V193.5L254 195.5V203.5L240 206.5L239.5 199L230.5 200.5V208.5L216.5 211.5V204L207.5 206V213.5L194 216.5L193.5 209L184 210.5V218.5L170.5 221L171 214L161.5 215.5L161 223L148 226.5V219L138.5 221V229C133.833 229.833 124.5 231.4 124.5 231V224L115 226V233.5L101.5 236V229L92.4999 232ZM322.5 192.5C323 192 327 191.5 330 192.5C332.4 193.3 479.333 224.833 552.5 240.5V339L330.5 389C329 389.5 324.9 390.2 320.5 389C316.1 387.8 172.667 353.833 101.5 337V241L322.5 192.5ZM322.6 198.043C323.089 197.573 327 197.102 329.933 198.043C332.28 198.796 475.956 228.457 547.5 243.193V335.845L330.422 382.877C328.956 383.347 324.946 384.006 320.644 382.877C316.342 381.748 176.089 349.798 106.5 333.964V243.664L322.6 198.043ZM592.5 214.5H594.5V276H592.5V214.5ZM561.5 207.5V276H563.5V207.5H561.5ZM622.5 219V276H633V221L622.5 219ZM622.5 291.5H631.5V354L623.5 357L622.5 291.5ZM561.5 294.5H563.5V372H561.5V294.5ZM591.5 293.5H594.5V363.5H592.5L591.5 293.5ZM260.622 226.983V231.114H265.576L289.52 352.576H294.474L306.859 296.389L317.592 352.576H321.72L344.839 231.114H348.141V226.983H335.757V231.114H338.234L340.711 232.767L326.674 312.088C322.546 294.737 313.385 250.293 313.5 249.5L320.046 231.114H327.5V226.983H260.622ZM282.089 231.114L297.776 314.567H301.079L306.033 291.432V288.127L295.299 231.114H282.089ZM309.336 231.114L312.5 245.5L317.628 231.114H309.336ZM435.661 226.157C429.331 226.707 416.011 236.733 413.368 272.428C410.726 308.122 417.221 331.919 420.799 339.355C423.001 344.864 429 353.5 435.661 352.576C442.322 351.651 446.12 346.516 447.22 345.139L449.697 350.923H452.5V317.046H448.5C448.225 324.482 441 348.5 436.5 345.5C431 344.5 431.21 325.873 431.491 319.742C431.502 319.498 431.512 319.291 431.519 319.124C431.528 318.918 431.533 318.773 431.533 318.699V236.072C432.359 233.868 434.275 230.798 435.661 230.288C435.723 230.265 436.335 230.109 436.766 230.231C437.198 230.354 438.692 229.407 442.266 236.072C446.23 243.343 447.22 255.076 447.22 260.034H451.349V228.635H447.22L444.743 232.767C443.092 230.101 438.964 225.048 435.661 226.157Z" stroke="black"/>
</svg>
